<?xml version="1.0"?>
<svg xmlns="http://www.w3.org/2000/svg" id="Layer_1" data-name="Layer 1" width="150" height="26" viewBox="0 0 181.79 32.48"><path d="M80.53,21.69V15.07a4,4,0,0,0-3.68-4.22,2.72,2.72,0,0,0-.57,0,4.33,4.33,0,0,0-3.78,1.94,4,4,0,0,0-3.56-1.94,3.39,3.39,0,0,0-3.1,1.59V11.08H63.58V21.69h2.47V15.75a2.52,2.52,0,0,1,2.18-2.83,2.26,2.26,0,0,1,.45,0c1.61,0,2.3,1,2.3,2.84v5.94h2.31V15.87A2.52,2.52,0,0,1,75.47,13a2.36,2.36,0,0,1,.46,0c1.6,0,2.41,1,2.41,2.85v5.94Zm34.76-10.61h-3.71V7.76h-2.41V11H107v2.17h2.17v4.8c0,2.51,1,4,3.67,4a5.6,5.6,0,0,0,2.87-.8L115,19.05a3.7,3.7,0,0,1-2.07.57c-1.15,0-1.61-.68-1.61-1.82V13h3.79Zm19.83-.35a3.1,3.1,0,0,0-2.84,1.6V11.08H130V21.69h2.3V15.75c0-1.82.81-2.73,2.3-2.73a6.89,6.89,0,0,1,1.49.23l.68-2.17a3.65,3.65,0,0,0-1.59-.35Zm-29.93,1.14a7.63,7.63,0,0,0-4.36-1.14c-2.75,0-4.47,1.26-4.47,3.43,0,1.71,1.26,2.86,3.67,3.2l1.14.22c1.26.23,1.84.57,1.84,1.14,0,.8-.81,1.27-2.41,1.27a6,6,0,0,1-3.51-1.13L96,20.69a8,8,0,0,0,4.7,1.37c3.11,0,4.81-1.48,4.81-3.43s-1.38-2.88-3.79-3.22l-1.15-.23c-1-.11-1.83-.34-1.83-1s.79-1.25,2.07-1.25a7.79,7.79,0,0,1,3.33.91Zm62.28-1.14a3.11,3.11,0,0,0-2.87,1.6V11.08h-2.29V21.69h2.29V15.75c0-1.82.81-2.73,2.3-2.73a6.89,6.89,0,0,1,1.49.23l.69-2.17A3.35,3.35,0,0,0,167.47,10.73Zm-29.93,5.6a5.43,5.43,0,0,0,5.26,5.6h.47a5.9,5.9,0,0,0,3.9-1.25l-1.12-1.81a5.49,5.49,0,0,1-2.86,1A3.2,3.2,0,0,1,140,16.72a2.09,2.09,0,0,1,0-.25,3.18,3.18,0,0,1,2.94-3.42h.28a4.67,4.67,0,0,1,2.86,1l1.15-1.84A5.62,5.62,0,0,0,143.3,11a5.18,5.18,0,0,0-5.71,4.58,6.49,6.49,0,0,0,0,.76Zm21.73,0V11h-2.15v1.25a4,4,0,0,0-3.5-1.63,5.42,5.42,0,0,0-5.4,5.45s0,.09,0,.14a5.42,5.42,0,0,0,5.26,5.59h.13a4.17,4.17,0,0,0,3.5-1.56v1.26h2.28Zm-8.6,0a3.25,3.25,0,0,1,3.07-3.42H154a3.18,3.18,0,0,1,3.22,3.15,2.44,2.44,0,0,1,0,.27,3.22,3.22,0,1,1-6.43.37v-.37Zm-28.21-5.6c-3.11,0-5.28,2.29-5.28,5.6a5.26,5.26,0,0,0,4.91,5.59h.6a6.72,6.72,0,0,0,4.41-1.48L126,18.72a5.42,5.42,0,0,1-3.11,1.15,3,3,0,0,1-3.21-2.63h7.91v-.91c.15-3.31-1.92-5.6-5-5.6Zm0,2.07c1.49,0,2.41.91,2.75,2.62H119.7a2.68,2.68,0,0,1,2.73-2.63h0Zm58.46,3.53V6.74h-2.3v5.59a4,4,0,0,0-3.43-1.6,5.45,5.45,0,0,0-5.4,5.48v.12a5.43,5.43,0,0,0,5.26,5.59h.14a4.13,4.13,0,0,0,3.43-1.59v1.25h2.3Zm-8.6,0a3.25,3.25,0,0,1,3.07-3.42h.14A3.18,3.18,0,0,1,178.75,16c0,.1,0,.2,0,.29a3.18,3.18,0,0,1-2.93,3.41h-.28a3.24,3.24,0,0,1-3.21-3.29Zm-78.65,0V11H91.34v1.25a4,4,0,0,0-3.44-1.63A5.41,5.41,0,0,0,82.51,16v.14a5.43,5.43,0,0,0,5.27,5.59h.12a4.14,4.14,0,0,0,3.44-1.6v1.25h2.3Zm-8.6,0a3.25,3.25,0,0,1,3.07-3.42h.13a3.17,3.17,0,0,1,3.22,3.15,2.44,2.44,0,0,1,0,.27,3.18,3.18,0,0,1-2.93,3.41h-.28A3.26,3.26,0,0,1,85,16.49a.92.92,0,0,1,0-.16ZM25.39,29.21a1.72,1.72,0,0,0,.46.34,15.86,15.86,0,0,1-8.94,2.63,16,16,0,1,1,0-31.95,17,17,0,0,1,8.94,2.63,1.57,1.57,0,0,1-.46.34,17.25,17.25,0,0,0-5.92,13A17.07,17.07,0,0,0,25.39,29.21ZM36.78.23a17,17,0,0,0-9,2.63,1.94,1.94,0,0,0,.47.34A17.18,17.18,0,0,1,30,27.44a16.71,16.71,0,0,1-1.78,1.79,1.45,1.45,0,0,1-.47.34,15.94,15.94,0,0,0,9,2.63,16,16,0,0,0,.85-32q-.41,0-.81,0Zm-9.9,3.42a7.16,7.16,0,0,1-.57.46,15.9,15.9,0,0,0-5.51,12.1,16.29,16.29,0,0,0,5.51,12.11c.23.22.46.34.57.45.23-.23.46-.34.57-.45a15.89,15.89,0,0,0,5.48-12.11,16.24,16.24,0,0,0-5.48-12.1A2.1,2.1,0,0,1,26.88,3.65Z"/></svg>
