<?xml version="1.0"?>
<svg xmlns="http://www.w3.org/2000/svg" xmlns:xlink="http://www.w3.org/1999/xlink" id="Layer_1" data-name="Layer 1" width="53" height="53" viewBox="0 0 60 60"><defs><style>.cls-1{fill:none;}.cls-2{clip-path:url(#clip-path);}</style><clipPath id="clip-path"><rect class="cls-1" width="59.3" height="59.1"/></clipPath></defs><g class="cls-2"><path d="M29.5,10.4a16.55,16.55,0,0,1,3,2.2l-.3.3a27.66,27.66,0,0,0-5,.1c-.2-.2-.5-.4-.2-.7ZM59.2,31.2a5.5,5.5,0,0,1-.2,2.2c-3,.8-5.1-2.4-8-1.9l.3,1.7c2.8.1,4.5,2.7,7.3,2.6-.4.8.2,2.9-1.6,2.1-1.9-.4-3.2-2.1-5.2-2.1a4.19,4.19,0,0,0-.1,1.6c2.2.3,3.7,2.1,5.8,2.5a3.48,3.48,0,0,1-1,2c-1.8-.4-3.1-2-5-1.9l-.3,1.5c1.8,0,2.9,1.6,4.5,2.1a3.82,3.82,0,0,1-.9,1.8c-1.4-.4-2.5-1.6-4.1-1.5a12.25,12.25,0,0,0,.2-1.9c-1.8.5-3-1.1-4.4-2.1,0-3.3-3.5-5.5-3.7-8.5a7.47,7.47,0,0,1,.3-2,10.49,10.49,0,0,0-.5-8.5,4.13,4.13,0,0,0-1.7-1.5c.9,1.9,2,4.2,1.5,6.6-.1,1.8-1.1,3.6-1.2,5.4a3.39,3.39,0,0,0,.5,1.9c1.5,2.6,4.1,5.1,3.1,8.4-.3,1-1.1,1.8-1.3,2.8,1.7,1.4,3.3,3,5.6,3.1.8-.5.4-2.8,2-1.7l2.4,1.2a4.82,4.82,0,0,1-1.2,1.7,5.89,5.89,0,0,0-3-.9,2.23,2.23,0,0,0-.6,1.3,5.39,5.39,0,0,1,2.2.9,4.57,4.57,0,0,1-1.5,1.6L47.5,51c-.3.4-1,.9-.7,1.4a4.73,4.73,0,0,1,1.2.7,11.93,11.93,0,0,1-2.9,2.1c-.9-2.8-3.8-4.8-3.5-8.1l-.1-.1c-.7.8-.4,2-.4,2.9.8,2,2.7,3.6,3,5.9-.3.6-1.1.7-1.7.9.1-4.1-6.1-7.1-2.2-11.3,1.3-2,3.5-3.9,2.8-6.7s-3.7-4.3-3.6-7.3v-.2c.6-3.1,2.6-6.5,1-9.8A5.89,5.89,0,0,0,37.6,18a9.87,9.87,0,0,1,1.7,9.3,11.7,11.7,0,0,0-1.5,4.2,3.5,3.5,0,0,0,.6,2.2c1.6,2.5,4.2,5.3,2.7,8.5-1.8,2.6-4.8,5.3-3.1,8.7,1.2,2,3.1,4.1,2.6,6.6l-2,.7c1.4-4.7-5.2-7.5-2.5-12.2,1.7-2.5,4.8-4.9,3-8.2-1-2.1-3.2-3.3-3.1-5.9l.1-.4c.9-4,3.7-7.5,1.7-11.5a7.1,7.1,0,0,0-2.7-3l-.1.1a8.17,8.17,0,0,1,1.8,8.8c-.6,1.7-1.8,3.4-2.1,5.3a4.37,4.37,0,0,0,.5,2.7c1.5,2.3,4,4.7,2.4,7.7-1.7,2.4-4.5,4.8-3.4,8,1.2,2.8,3.8,5.5,2.4,8.9l-2.1.5c1.7-3.4-.8-6.7-2.3-9.7-1.8-4.2,3.8-6.2,3.9-10.1,0-2.5-2.7-3.9-3.2-6.2-1.1-1-2.3.4-3.7.1-1,.2-2.6-1.4-3.2.3-.7,2.5-4,4.4-2.6,7.4,1.4,2.6,4.7,4.6,3.6,8-1,3.2-4.2,6.3-2.2,10-.8-.3-2.4.2-2.4-1.1-1.3-4.5,4.2-7.1,2.5-11.6-.8-2.7-4.4-4.3-3.6-7.6.6-2.7,3.7-4.6,3.2-7.6a3.09,3.09,0,0,0-.2-.8c-1.1-3.2-3.5-6.4-2.1-10.2A10.84,10.84,0,0,1,24,17a6.92,6.92,0,0,0-3.3,6.2c-.1,2.8,2,5.1,2.3,7.7a4.94,4.94,0,0,1-.8,3.2c-1.5,2-3.4,4-2.5,6.6s4.1,4.2,3.9,7.2c0,3.6-4.2,5.8-3,9.9l-2.1-.7c-.8-3.6,3-5.4,3-8.7.5-3.8-4.3-5.2-4-8.9,0-2.8,2.5-4.6,3.6-7a4.68,4.68,0,0,0,.2-1.6c-.1-2.6-2.5-4.7-2.1-7.6a9.07,9.07,0,0,1,2.3-5.7c-2,.8-2.8,3-3.3,4.9-.9,3,1.3,5.7,1.5,8.4a4.51,4.51,0,0,1-1.3,3.6c-1.6,1.9-3.2,4.3-2.1,6.8,1.2,2.8,5.1,5,3.4,8.5-.9,2.2-3.1,3.9-3,6.5a5.56,5.56,0,0,1-1.7-.9c0-3.3,4.8-5.4,2.5-8.9-.2.7-.2,1.6-.4,2.4-.8,2-2.5,3.7-3.1,5.8a8.62,8.62,0,0,1-3-2.1l1.2-.7a4.18,4.18,0,0,0-.8-1.2c-.8-.1-1.3.4-2,.6a11.37,11.37,0,0,1-1.6-1.5c.4-1.1,3.5-.2,2-2.1-.8-.6-1.9.3-2.9.8L5.6,46.9c1.1-.7,2.2-1.6,3.6-1.3.3.6.4,1.5,1,1.8,2.3,0,4-1.8,5.7-3.2-1.2-1.8-2.2-4.4-1.1-6.6.9-2.2,3.2-4.1,3.3-6.5a6.15,6.15,0,0,0-.3-1.8c-1.2-3.1-1.6-7.3.7-10.1-1.3.3-2,1.9-2.4,3.1-1.4,3,.4,5.8.4,8.7a4.68,4.68,0,0,1-.2,1.6c-1.2,2.4-3.1,4.5-3.4,7.2-1.4.9-2.5,2.4-4.4,1.9a4.43,4.43,0,0,0,.3,1.9c-1.6-.1-2.6,1.1-3.9,1.6-.7-.2-.9-1.1-1.1-1.7,1.5-.5,2.6-2,4.4-2A2.85,2.85,0,0,0,8,39.9c-2.2-1-5.6,4.8-5.9-.2,2.2,0,3.6-2,5.7-2.2l.1-1.6c-2.4-.2-4,2.2-6.5,2L.9,35.8c2.8.2,4.5-2.3,7.2-2.5a3.74,3.74,0,0,0,.5-1.8c-2.9-.4-5,2.9-8.1,1.9,0,0-.1-1.3-.2-2.1v-.5c2.8,1.1,5.2-.9,7.6-1.9.6-.2,1.6.1,1.8-.5,0-.5.9-1.1.1-1.5C6.3,26.4,4,30.6.4,28.7L0,28A30,30,0,0,1,16,3.3,27.16,27.16,0,0,1,29.4,0,29.12,29.12,0,0,1,45.5,4.5,30.46,30.46,0,0,1,56,15.7a29.53,29.53,0,0,1,3.4,12.6c-3.7,2.8-6.2-2.6-9.9-1.4a5.09,5.09,0,0,0,.7,1.7c3.3,0,5.6,3.4,9.1,2.1v.5ZM17,18.7c-2.3-1.5-5.3-.1-7.5.7a7,7,0,0,0-2.8-5.2c-.1,0-.4-.2-.6-.2s-.2,0-.3.2C6.6,19,3.4,22.4,1.2,26a3.43,3.43,0,0,0,2.8.3c2.4-.9,4.6-2.6,7.4-2a18,18,0,0,1,3.4-3.9C15.5,19.8,16.5,19.4,17,18.7Zm7.1,3.1c0,.3,0,.8.5.6.7-1,1.9-.2,2.7-.1V22a2.2,2.2,0,0,0-2.2-.9,1.27,1.27,0,0,0-.6.1C24.2,21.2,24,21.4,24.1,21.8Zm11-2.9c-.6-1.4-2.1-1.9-3.4-2.3a12.75,12.75,0,0,0-2-.1h-.4a5.57,5.57,0,0,0-4.7,2c-.2.4-.8,1-.2,1.4,1.4-.1,3-.3,4,.9,0,1.1.7,2.5-.5,3-1-.9-2.1.4-3.2-.3-.5-.3-.8,0-1,.5a8,8,0,0,0,3.8,7.4,5,5,0,0,0,3.6.2c2.6-1.2,3.8-4,4.2-6.6-.1-.5,0-1.4-.7-1.5-.8.5-1.9.2-2.8,0-.5.2-.5.9-1.1,1l-.3-.3c-.3-1.2-.5-3,.7-3.8a6.44,6.44,0,0,1,4.1-.3C35.5,19.6,35.1,19.2,35.1,18.9Zm-1.4,2.2h-.3c-.5.3-1.8.1-1.4,1.1.8-.7,2-.2,2.9.1.3-.2.2-.5.3-.7C35,21.1,34.3,21.1,33.7,21.1Zm9.8-9.5c-1.7-.1-3,.8-4.6,1.3-.1-1.3.8-2.6,1.1-4-2.5.2-4.4,1.6-6.5,2.8-.5-1.1-.9-2.3-1.4-3.4l2.7-2.5.1-.3-3.6-.2a35.39,35.39,0,0,0-1.6-3.4C29,3,28.6,4.2,28,5.3l-3.6.2v.3l2.8,2.5a7.7,7.7,0,0,1-1.5,3.6,30,30,0,0,0-5-2.7c-.4-.1-1-.4-1.4-.1.6,1.2,1.4,2.5,1.2,3.9a16.67,16.67,0,0,1-2-.8c-.8-.2-1.8-.7-2.6-.4a14.16,14.16,0,0,1,2.8,6.1,25.68,25.68,0,0,1,15.1-2.4,32.78,32.78,0,0,1,7.1,2.3C40.9,15.4,42.5,13.5,43.5,11.6Zm7.7,12.9c2.3.6,4.6,3.1,7,1.5-2.1-3.5-5.2-6.7-4.4-11.3a.57.57,0,0,0-.4-.7,6.24,6.24,0,0,0-3,3.2,15.46,15.46,0,0,1-.7,2.3c-1.6-.8-3.4-1.7-5.4-1.5-.7.1-1.8.1-1.9.9a15,15,0,0,1,5.5,5.4A12.22,12.22,0,0,1,51.2,24.5Zm-24,3.2.1.4c.9.6,1.1,1.6,2.4,1.5,1.1.1,1.9-.9,2.4-1.7C30.6,27.6,28.8,27.9,27.2,27.7Zm1.2-1.9c0,.2-.1.4.1.5.7-.2,2,.4,2.4-.5a1.66,1.66,0,0,0-1.2-.5A6.94,6.94,0,0,0,28.4,25.8Z"/><path d="M28.1,26.1c.6.1.8.4,1.3.4s.5-.1,1.4-.4c.1,0,.1-.2,0-.3-.6-.6-1-.2-1.3-.2-.5,0-.9-.4-1.4.1C28,26,28,26.1,28.1,26.1Z"/><path d="M51.3,59.1V56.2h-1v-.6h2.8v.6h-1v2.9Z"/><path d="M53.5,59.1V55.6h1l.6,2.3.6-2.3h1v3.5h-.6V56.4l-.7,2.7h-.7L54,56.4v2.7Z"/></g></svg>
