<?xml version="1.0"?>
<svg xmlns="http://www.w3.org/2000/svg" id="Calque_1" data-name="Calque 1" width="150" height="20" viewBox="0 0 155.55 20"><defs><style>.cls-1{fill:#010101;}</style></defs><path class="cls-1" d="M0,.33H3.67L8.29,14.67,13,.28h2.87l4.75,14.39L25.28.33h3.56L22.1,19.81H19.17L14.42,5.91,9.67,19.81H6.74Z"/><path class="cls-1" d="M33.9.33h3.36V19.67H33.9Z"/><path class="cls-1" d="M48.59,3.48H42.46V.33H58.15V3.48H52V19.67H48.59Z"/><path class="cls-1" d="M63.12.33h3.37v8h9.28v-8h3.37V19.67H75.77V11.52H66.49v8.15H63.12Z"/><path class="cls-1" d="M85.69.33h3.37V19.67H85.69Z"/><path class="cls-1" d="M95.63.33h3.15L109.12,13.7V.33h3.37V19.67h-2.84L99,5.91V19.67H95.63Z"/><path class="cls-1" d="M128,20a10.63,10.63,0,0,1-4.11-.76A9.2,9.2,0,0,1,118.7,14a10.52,10.52,0,0,1-.72-3.93V10a10.21,10.21,0,0,1,.74-3.84A9.65,9.65,0,0,1,120.79,3,9.9,9.9,0,0,1,128,0a13.54,13.54,0,0,1,2.31.18,10.77,10.77,0,0,1,1.92.51,8.93,8.93,0,0,1,1.67.82,11.42,11.42,0,0,1,1.53,1.11l-2.15,2.57c-.37-.31-.75-.59-1.13-.85a6.5,6.5,0,0,0-1.22-.65,7.06,7.06,0,0,0-1.39-.42,8.71,8.71,0,0,0-1.67-.15,5.63,5.63,0,0,0-2.48.56,6.43,6.43,0,0,0-2,1.48,6.79,6.79,0,0,0-1.32,2.17,7.27,7.27,0,0,0-.49,2.63v0a8,8,0,0,0,.47,2.77A6.39,6.39,0,0,0,123.38,15a6.31,6.31,0,0,0,2.07,1.44,6.61,6.61,0,0,0,2.68.52,8,8,0,0,0,2.58-.4,7.16,7.16,0,0,0,2.08-1.07V11.82h-4.94v-3h8.23V17a15.53,15.53,0,0,1-1.59,1.16,12.32,12.32,0,0,1-1.88,1,12.51,12.51,0,0,1-2.17.65A12.68,12.68,0,0,1,128,20Z"/><path class="cls-1" d="M148.67,20a12.33,12.33,0,0,1-4.28-.76,11.77,11.77,0,0,1-3.78-2.34l2-2.43a11.77,11.77,0,0,0,2.85,1.86,7.68,7.68,0,0,0,3.26.65,4.23,4.23,0,0,0,2.5-.66,2.08,2.08,0,0,0,.92-1.77v-.05a2.27,2.27,0,0,0-.18-.93,2.07,2.07,0,0,0-.66-.76A5.3,5.3,0,0,0,150,12.1a19.51,19.51,0,0,0-2.2-.61,22,22,0,0,1-2.76-.81,7.71,7.71,0,0,1-2-1.11A4.22,4.22,0,0,1,141.78,8a5.49,5.49,0,0,1-.43-2.26V5.66a5.23,5.23,0,0,1,1.85-4A6.43,6.43,0,0,1,145.28.47a8,8,0,0,1,2.65-.42,10.75,10.75,0,0,1,7,2.44l-1.82,2.57a11.63,11.63,0,0,0-2.62-1.48,7.15,7.15,0,0,0-2.63-.51,3.66,3.66,0,0,0-2.32.66,2,2,0,0,0-.83,1.63v0a2.4,2.4,0,0,0,.2,1,1.93,1.93,0,0,0,.7.77,6.15,6.15,0,0,0,1.42.65q.9.3,2.28.63a22.17,22.17,0,0,1,2.7.86A6.33,6.33,0,0,1,154,10.46,4.49,4.49,0,0,1,155.15,12a5,5,0,0,1,.4,2.09v.05a5.77,5.77,0,0,1-.5,2.43,5.2,5.2,0,0,1-1.42,1.83,6.3,6.3,0,0,1-2.17,1.13A9.41,9.41,0,0,1,148.67,20Z"/></svg>
