<?xml version="1.0"?>
<svg xmlns="http://www.w3.org/2000/svg" xmlns:xlink="http://www.w3.org/1999/xlink" id="Layer_1" data-name="Layer 1" width="150" height="21" viewBox="0 0 189 26"><defs><style>.cls-1{fill:none;}.cls-2{clip-path:url(#clip-path);}</style><clipPath id="clip-path"><rect class="cls-1" width="189" height="26"/></clipPath></defs><g class="cls-2"><path d="M72.57,3.66v7.09h-8V3.66H60.12v18.6h4.43v-7.5h8v7.5H77V3.66Z"/><path d="M93.35,3.66l-4.63,7.4-4.63-7.4H78.85l7.71,12.23v6.48H91V15.89L98.7,3.66Z"/><path d="M112.8,3.66V17.33a.92.92,0,0,1-.92.93h-7.1V3.66h-4.43v18.6h13.17a3.54,3.54,0,0,0,3.81-3.8V3.66Z"/><path d="M134.51,3.66H121.34v18.6h4.42V7.67h7.1a.87.87,0,0,1,.93.93V22.26h4.42V7.47a3.73,3.73,0,0,0-1-2.78A3.33,3.33,0,0,0,134.51,3.66Z"/><path d="M155.6,3.66H142.43v18.6H155.6a3.54,3.54,0,0,0,3.81-3.8v-11a3.73,3.73,0,0,0-1-2.78A3.73,3.73,0,0,0,155.6,3.66Zm-.62,5v8.63a.92.92,0,0,1-.92.93H147V7.67h7.1A1,1,0,0,1,155,8.7Z"/><path d="M167.12,3.66a3.71,3.71,0,0,0-2.77,1,3.69,3.69,0,0,0-1,2.78V22.26h4.42V16.51h8v5.75h4.42V3.66Zm8.65,4V12.5h-8V8.6a.92.92,0,0,1,.93-.93Z"/><path d="M184.51,22.26h4.43V3.66h-4.43Z"/><path d="M25.35,26c14,0,25.41-5.85,25.41-12.94S39.44.07,25.35.07-.06,5.92-.06,13,11.36,26,25.35,26Zm4.83-6.37c-.41,1-1.13,3.09-2.77,3.91a5.06,5.06,0,0,1-1.65.41h-.31A42.77,42.77,0,0,1,12.8,22.16s-.11,0-.11-.1c-.31-.1-.51-.31-.51-.41a.52.52,0,0,1,.2-.41c.11,0,.11-.11.21-.21a29.44,29.44,0,0,1,8.13-4.42,37.71,37.71,0,0,1,6-1.85C27.92,14.45,32.65,13.73,30.18,19.59Zm12.76-13c.1-.2.21-.31.41-.31a.66.66,0,0,1,.52.21c3,1.85,4.73,4.11,4.73,6.58,0,4.52-5.76,8.32-14,10-.52.11-.93.11-1,0s-.1-.2,0-.41.1-.2.2-.31C38.31,17,41.71,9.21,42.63,7,42.84,6.75,42.94,6.64,42.94,6.54Zm-22.22-.2c.41-1,1.13-3.09,2.78-3.91A4.71,4.71,0,0,1,25.14,2h.21A42.77,42.77,0,0,1,38,3.77s.11,0,.11.1c.3.1.51.31.51.41a.5.5,0,0,1-.21.41l-.2.21a27.44,27.44,0,0,1-8.13,4.31,37,37,0,0,1-6,1.85C23,11.47,18.15,12.19,20.72,6.34Zm-4.63-3.4a1.66,1.66,0,0,1,1,0c.1.11.1.21,0,.42s-.11.2-.21.3C12.38,8.9,9,16.72,8.06,19c-.1.2-.1.3-.2.41s-.21.31-.41.31a.66.66,0,0,1-.52-.21C4,17.64,2.2,15.38,2.2,12.91,2.1,8.49,7.86,4.69,16.09,2.94Z"/></g></svg>
