<?xml version="1.0"?>
<svg xmlns="http://www.w3.org/2000/svg" id="Layer_1" data-name="Layer 1" width="80" height="32" viewBox="0 0 80 32"><path d="M20.44,9.93V7.76H15.89V21.11h4.73V14.66A4.17,4.17,0,0,1,24.85,12a4.22,4.22,0,0,1,1.57.27V7.76A5.46,5.46,0,0,0,25,7.59,4.94,4.94,0,0,0,20.44,9.93Z"/><path d="M14,7.76H9.24c.1,3-1.32,4.51-4.49,4.55V2.82H0V21.11H4.75V16.56a13.9,13.9,0,0,0,2-.15l2.37,4.7h5.41L11,14.7C12.89,13.2,13.92,10.84,14,7.76Z"/><path d="M38.86,7.76l-3,8.8-3-8.8H27.75l5.08,13.29c-.32.68-1.3,1-2.85,1a8.5,8.5,0,0,1-3.15-.54V25.9a10.06,10.06,0,0,0,3.35.55c5.07,0,7.63-3.22,9.6-8.31L43.71,7.76Z"/></svg>
