<svg id="Layer_1" data-name="Layer 1" xmlns="http://www.w3.org/2000/svg" width="19" height="18.57" viewBox="0 0 19 18.57"><defs><style>.cls-1{fill:#181616;fill-rule:evenodd;}</style></defs><path class="cls-1" d="M9.53,0a9.52,9.52,0,0,0-3,18.56c.48.09.65-.21.65-.46s0-.83,0-1.62C4.51,17.06,4,15.2,4,15.2a2.49,2.49,0,0,0-1.06-1.39c-.86-.58.07-.58.07-.58a2,2,0,0,1,1.46,1A2,2,0,0,0,7.19,15a2,2,0,0,1,.6-1.27C5.68,13.47,3.45,12.66,3.45,9a3.73,3.73,0,0,1,1-2.56,3.4,3.4,0,0,1,.09-2.52s.8-.26,2.62,1a9,9,0,0,1,4.77,0c1.81-1.24,2.61-1,2.61-1a3.42,3.42,0,0,1,.1,2.52,3.67,3.67,0,0,1,1,2.56c0,3.66-2.23,4.47-4.35,4.7a2.26,2.26,0,0,1,.65,1.76c0,1.27,0,2.3,0,2.61s.18.55.66.46A9.52,9.52,0,0,0,9.53,0Z" transform="translate(0)"/></svg>