<svg width="17" height="17" viewBox="0 0 17 17" fill="none" xmlns="http://www.w3.org/2000/svg">
<g clip-path="url(#clip0)">
<path d="M8.5 1.53196C10.7709 1.53196 11.0375 1.54208 11.9351 1.58257C12.7652 1.61969 13.214 1.75804 13.5143 1.87614C13.9125 2.03136 14.1959 2.21358 14.4929 2.51052C14.7898 2.80746 14.9754 3.09091 15.1272 3.48908C15.242 3.7894 15.3837 4.23819 15.4208 5.06828C15.4613 5.96586 15.4714 6.23243 15.4714 8.50337C15.4714 10.7743 15.4613 11.0409 15.4208 11.9385C15.3837 12.7686 15.2453 13.2173 15.1272 13.5177C14.972 13.9158 14.7898 14.1993 14.4929 14.4962C14.1959 14.7932 13.9125 14.9788 13.5143 15.1306C13.214 15.2453 12.7652 15.3871 11.9351 15.4242C11.0375 15.4647 10.7709 15.4748 8.5 15.4748C6.22906 15.4748 5.96249 15.4647 5.06491 15.4242C4.23482 15.3871 3.78603 15.2487 3.48571 15.1306C3.08754 14.9754 2.80409 14.7932 2.50715 14.4962C2.2102 14.1993 2.02461 13.9158 1.87277 13.5177C1.75804 13.2173 1.61632 12.7686 1.5792 11.9385C1.53871 11.0409 1.52858 10.7743 1.52858 8.50337C1.52858 6.23243 1.53871 5.96586 1.5792 5.06828C1.61632 4.23819 1.75467 3.7894 1.87277 3.48908C2.02799 3.09091 2.2102 2.80746 2.50715 2.51052C2.80409 2.21358 3.08754 2.02799 3.48571 1.87614C3.78603 1.76141 4.23482 1.61969 5.06491 1.58257C5.96249 1.53871 6.23244 1.53196 8.5 1.53196ZM8.5 0C6.19194 0 5.90175 0.0101231 4.99405 0.0506153C4.08972 0.0911076 3.47221 0.236205 2.93232 0.445415C2.37217 0.661374 1.89976 0.954942 1.42735 1.42735C0.954943 1.89976 0.664748 2.37555 0.445415 2.93231C0.236205 3.47221 0.0911076 4.08972 0.0506154 4.99742C0.0101231 5.90175 0 6.19194 0 8.5C0 10.8081 0.0101231 11.0983 0.0506154 12.006C0.0911076 12.9103 0.236205 13.5278 0.445415 14.0711C0.661374 14.6312 0.954943 15.1036 1.42735 15.576C1.89976 16.0484 2.37555 16.3386 2.93232 16.558C3.47221 16.7672 4.08972 16.9123 4.99742 16.9528C5.90512 16.9933 6.19194 17.0034 8.50338 17.0034C10.8148 17.0034 11.1016 16.9933 12.0093 16.9528C12.9137 16.9123 13.5312 16.7672 14.0744 16.558C14.6346 16.342 15.107 16.0484 15.5794 15.576C16.0518 15.1036 16.342 14.6278 16.5613 14.0711C16.7706 13.5312 16.9157 12.9137 16.9561 12.006C16.9966 11.0983 17.0068 10.8114 17.0068 8.5C17.0068 6.18857 16.9966 5.90175 16.9561 4.99405C16.9157 4.08972 16.7706 3.47221 16.5613 2.92894C16.3454 2.3688 16.0518 1.89639 15.5794 1.42398C15.107 0.951568 14.6312 0.661374 14.0744 0.442041C13.5345 0.232831 12.917 0.0877332 12.0093 0.047241C11.0983 0.0101231 10.8081 0 8.5 0Z" fill="black"/>
<path d="M8.49972 4.13696C6.09043 4.13696 4.1333 6.09071 4.1333 8.50338C4.1333 10.916 6.08705 12.8698 8.49972 12.8698C10.9124 12.8698 12.8661 10.916 12.8661 8.50338C12.8661 6.09071 10.9124 4.13696 8.49972 4.13696ZM8.49972 11.3345C6.93402 11.3345 5.66526 10.0657 5.66526 8.5C5.66526 6.9343 6.93402 5.66555 8.49972 5.66555C10.0654 5.66555 11.3342 6.9343 11.3342 8.5C11.3342 10.0657 10.0654 11.3345 8.49972 11.3345Z" fill="black"/>
<path d="M13.0386 4.98055C13.6014 4.98055 14.0576 4.52431 14.0576 3.9615C14.0576 3.39869 13.6014 2.94244 13.0386 2.94244C12.4758 2.94244 12.0195 3.39869 12.0195 3.9615C12.0195 4.52431 12.4758 4.98055 13.0386 4.98055Z" fill="black"/>
</g>
<defs>
<clipPath id="clip0">
<rect width="17" height="17" fill="white"/>
</clipPath>
</defs>
</svg>
