<svg width="17" height="17" viewBox="0 0 17 17" fill="none" xmlns="http://www.w3.org/2000/svg">
<path d="M15.8129 17H1.18709C0.53145 17 0 16.4685 0 15.8129V1.18709C0 0.53145 0.53145 0 1.18709 0H15.8129C16.4685 0 17 0.53145 17 1.18709V15.8129C17 16.4685 16.4685 17 15.8129 17Z" fill="black"/>
<path d="M5.05248 6.44035H2.5459V14.5372H5.05248V6.44035Z" fill="#EEEEEE"/>
<path d="M5.26875 3.88631C5.26875 4.7118 4.60489 5.38022 3.78672 5.38022C2.96854 5.38022 2.30469 4.71088 2.30469 3.88631C2.30469 3.06083 2.96854 2.39241 3.78672 2.39241C4.60489 2.39241 5.26875 3.06083 5.26875 3.88631Z" fill="#EEEEEE"/>
<path d="M14.4429 9.41083V14.5372H11.9491V10.2875C11.9491 9.12228 11.5063 8.47121 10.5849 8.47121C9.58226 8.47121 9.05812 9.14876 9.05812 10.2875V14.5372H6.65381V6.44038H9.0572V7.53067C9.0572 7.53067 9.78041 6.19292 11.4971 6.19292C13.2138 6.19292 14.4429 7.24212 14.4429 9.41083Z" fill="#EEEEEE"/>
</svg>
