<svg width="66" height="45" viewBox="0 0 66 45" fill="none" xmlns="http://www.w3.org/2000/svg">
<g clip-path="url(#clip0_504_125)">
<path d="M49.7872 31.6285C48.5106 31.6285 47.234 31.4999 45.9574 31.1142C42.5106 30.3427 39.4468 28.5427 36.6383 25.7142C35.234 24.2999 33.9574 22.6285 32.8085 20.8285C31.5319 22.8856 30 24.8142 28.3404 26.6142C26.5531 28.6713 24.1276 30.0856 21.4468 30.857C18.8936 31.6285 16.2127 31.757 13.5319 31.2427C10.851 30.7285 8.29782 29.6999 6.25527 28.157C3.9574 26.4856 2.17016 24.2999 1.14889 21.7285C0.12761 19.4142 -0.255368 16.7142 0.12761 14.0142C0.510589 11.4427 1.53187 8.99989 3.06378 6.81417C4.5957 4.62846 6.51059 2.95703 8.6808 1.79989C10.9787 0.514171 13.5319 -0.000114996 15.9574 0.128456H16.0851C17.4893 0.128456 18.8936 0.257028 20.1702 0.514171C23.617 1.2856 26.8085 3.21417 29.617 6.17131C30.8936 7.45703 32.0425 8.99989 33.0638 10.4142C35.1063 7.45703 37.4042 4.62846 40.5957 2.57131C42.7659 1.02846 45.4468 0.128456 48.2553 -0.000114995C50.9361 -0.128686 53.617 0.385599 56.1702 1.41417C61.4042 3.72846 64.9787 8.09989 65.7446 13.2427C66.1276 15.8142 65.8723 18.6427 64.7234 21.0856C63.7021 23.3999 62.1702 25.5856 60.2553 27.3856C57.1914 30.0856 53.4893 31.6285 49.7872 31.6285ZM36.1276 15.557C37.2765 17.9999 38.8085 20.1856 40.468 21.857C42.5106 23.9142 44.8085 25.1999 47.234 25.8427H47.3617H47.4893C50.5531 26.7427 54 25.8427 56.8085 23.3999C59.617 20.957 61.0212 17.357 60.5106 14.1427C60 10.9285 57.5744 7.97131 54.1276 6.42846C50.5531 4.8856 46.468 5.14274 43.7872 7.07131H43.6595C40.3404 9.12846 38.1702 12.2142 36.1276 15.557ZM15.1914 5.52846C12.2553 5.52846 9.3191 7.19989 7.40421 10.0285C6.38293 11.4427 5.74463 13.1142 5.48931 14.657C5.23399 16.3285 5.48931 17.8713 6.12761 19.4142V19.5427C6.76591 21.2142 7.91485 22.4999 9.3191 23.657C10.7234 24.6856 12.5106 25.457 14.4255 25.8427C18.3829 26.4856 22.0851 25.457 24.3829 22.8856C26.4255 20.8285 28.0851 18.257 29.7446 15.557C27.0638 11.1856 23.617 7.07131 18.8936 6.04274C18.1276 5.91417 17.234 5.7856 16.2127 5.7856H16.0851H15.7021C15.5744 5.52846 15.4468 5.52846 15.1914 5.52846Z" fill="black"/>
<path d="M21.9572 14.1426H10.9785V16.4569H21.9572V14.1426Z" fill="black"/>
<path d="M50.553 19.9285H47.6168V16.7142H44.553V13.7571H47.6168V10.6714H50.553V13.7571H53.7445V16.7142H50.553V19.9285Z" fill="black"/>
<path d="M6.89356 34.0713H4.08504L0.893555 44.7427H2.93611L3.57441 42.6856H7.27653L7.91483 44.7427H10.085L6.89356 34.0713ZM3.95738 41.0141L5.36164 35.9999L6.7659 41.0141H3.95738Z" fill="black"/>
<path d="M10.085 44.7429H7.78717L7.14887 42.6857H3.57441L2.93611 44.7429H0.893555L4.08504 33.9429H6.89356L10.085 44.7429ZM7.91483 44.6143H9.95739L6.89356 34.0714H4.08504L1.02121 44.6143H2.93611L3.57441 42.5572H7.40419L7.91483 44.6143ZM6.89356 41.0143H3.95738L5.36164 35.8714L6.89356 41.0143ZM4.08504 40.8857H6.7659L5.4893 36.1286L4.08504 40.8857Z" fill="black"/>
<path d="M18.766 44.3571L17.1064 41.0142C16.8511 40.4999 16.4681 39.8571 15.8298 39.5999C19.0213 39.0856 18.766 34.4571 15.5745 34.0714C14.0426 33.8142 11.1064 33.9428 11.1064 33.9428V44.6142H13.149C13.149 44.6142 13.149 41.6571 13.149 40.2428C13.7873 40.1142 14.4256 40.3714 14.8086 40.8856C15.4469 42.1714 16.4681 44.6142 16.4681 44.6142H18.383C18.8937 44.7428 18.8937 44.6142 18.766 44.3571ZM13.2767 38.6999V35.7428C14.5533 35.7428 16.0852 35.6142 16.0852 37.1571C16.0852 38.5714 14.6809 38.6999 13.2767 38.6999Z" fill="black"/>
<path d="M18.5107 44.7428H16.4682C16.4682 44.7428 15.4469 42.1714 14.8086 41.0142C14.4256 40.4999 13.7873 40.3714 13.2767 40.3714C13.2767 41.7856 13.2767 44.7428 13.2767 44.7428H11.2341V33.9428C11.2341 33.9428 14.298 33.8142 15.7022 34.0714C17.3618 34.3285 18.2554 35.6142 18.2554 36.8999C18.2554 38.0571 17.6171 39.3428 16.0852 39.5999C16.4682 39.8571 16.8511 40.2428 17.2341 40.8856L18.8937 44.2285C19.0214 44.3571 19.0214 44.4856 18.8937 44.6142C18.766 44.7428 18.6384 44.7428 18.5107 44.7428ZM16.5958 44.6142H18.5107C18.6384 44.6142 18.6384 44.6142 18.766 44.4856C18.766 44.4856 18.766 44.3571 18.766 44.2285L17.1065 40.8856C16.7235 40.1142 16.3405 39.7285 15.9575 39.5999H15.8299H15.9575C17.4894 39.3428 18.2554 38.0571 18.2554 36.8999C18.2554 35.7428 17.4894 34.3285 15.8299 34.1999C14.4256 34.0714 11.7448 34.0714 11.3618 34.0714V44.6142H13.2767C13.2767 44.2285 13.2767 41.5285 13.2767 40.2428C13.7873 40.1142 14.5533 40.3714 14.9363 40.8856C15.5746 42.0428 16.4682 44.3571 16.5958 44.6142ZM13.6597 38.6999C13.532 38.6999 13.4043 38.6999 13.2767 38.6999V35.6142C13.4043 35.6142 13.532 35.6142 13.6597 35.6142C14.4256 35.6142 15.3192 35.6142 15.8299 36.1285C16.0852 36.3856 16.2129 36.7714 16.2129 37.1571C16.2129 37.5428 16.0852 37.9285 15.8299 38.1856C15.3192 38.6999 14.4256 38.6999 13.6597 38.6999ZM13.2767 38.6999C14.1703 38.6999 15.1916 38.6999 15.7022 38.1856C15.9575 37.9285 16.0852 37.6714 16.0852 37.1571C16.0852 36.7714 15.9575 36.3856 15.7022 36.1285C15.1916 35.6142 14.298 35.6142 13.532 35.7428C13.4043 35.7428 13.2767 35.7428 13.2767 35.7428V38.6999V38.6999Z" fill="black"/>
<path d="M23.8723 34.0713H20.1702V44.7427H22.5957C24.6383 44.7427 26.6808 44.2284 27.7021 42.0427C28.7234 39.2141 28.5957 34.1999 23.8723 34.0713ZM24.8936 42.557C24.1276 43.0713 23.1063 43.0713 22.2127 43.0713V35.7427C23.234 35.7427 24.2553 35.6141 25.1489 36.3856C26.2978 37.5427 26.5531 41.3999 24.8936 42.557Z" fill="black"/>
<path d="M22.851 44.7429H22.7234H20.1702V33.9429H24C25.5319 33.9429 26.6808 34.5857 27.4468 35.7429C28.5957 37.5429 28.468 40.2429 27.8297 42.0429C26.9361 43.8429 25.2765 44.7429 22.851 44.7429ZM20.1702 44.6143H22.5957C25.1489 44.6143 26.8085 43.7143 27.7021 41.9143C28.3404 40.1143 28.468 37.4143 27.3191 35.7429C26.5531 34.7143 25.4042 34.0714 24 34.0714H20.2978V44.6143H20.1702ZM22.7234 43.0714C22.5957 43.0714 22.468 43.0714 22.468 43.0714C22.3404 43.0714 22.3404 43.0714 22.2127 43.0714V35.6143C22.3404 35.6143 22.468 35.6143 22.7234 35.6143C23.617 35.6143 24.5106 35.6143 25.2765 36.2572C25.9148 37.0286 26.2978 38.5714 26.0425 40.1143C25.9148 41.2714 25.5319 42.0429 24.8936 42.5572C24.2553 43.0714 23.4893 43.0714 22.7234 43.0714ZM22.2127 42.9429C22.3404 42.9429 22.3404 42.9429 22.468 42.9429C23.3617 42.9429 24.1276 42.9429 24.8936 42.4286C25.5319 42.0429 25.9148 41.2714 26.0425 40.1143C26.1702 38.5714 25.9148 37.0286 25.1489 36.2572C24.3829 35.6143 23.4893 35.6143 22.7234 35.6143C22.5957 35.6143 22.468 35.6143 22.3404 35.6143V42.9429H22.2127Z" fill="black"/>
<path d="M37.2759 40.7572C37.5312 46.1572 29.8716 46.1572 29.6163 41.9143C29.4886 40.6286 29.6163 39.3429 29.6163 38.0572V33.9429H31.6589V41.5286C31.9142 43.5857 34.7227 43.4572 35.1057 42.3C35.4886 41.4 35.361 40.3714 35.361 39.3429V33.9429H37.4035L37.2759 40.7572Z" fill="black"/>
<path d="M33.3191 45C32.4255 45 31.5319 44.7429 30.8936 44.2286C30.1276 43.7143 29.617 42.8143 29.617 41.9143C29.4893 41.1429 29.4893 40.2429 29.617 39.4714C29.617 38.9572 29.617 38.5714 29.617 38.0572V33.9429H31.6595V41.6571C31.7872 42.5571 32.2978 43.0714 33.1914 43.2C33.9574 43.3286 34.851 42.9429 34.9787 42.4286C35.234 41.7857 35.234 41.0143 35.234 40.3714C35.234 40.1143 35.234 39.8572 35.234 39.4714V34.0714H37.2766V40.8857C37.4042 43.7143 35.3617 45 33.4468 45.1286C33.4468 45 33.3191 45 33.3191 45ZM29.617 34.0714V38.0572C29.617 38.5714 29.617 39.0857 29.617 39.4714C29.617 40.2429 29.617 41.1429 29.617 41.9143C29.7446 43.4571 31.0212 45 33.4468 44.8714C35.3617 44.7429 37.2766 43.4571 37.2766 40.7571V34.0714H35.3617V39.4714C35.3617 39.7286 35.3617 39.9857 35.3617 40.3714C35.3617 41.1429 35.3617 41.7857 35.1063 42.5571C34.851 43.2 34.0851 43.5857 33.1914 43.4571C32.2978 43.3286 31.6595 42.6857 31.5319 41.7857V34.2H29.617V34.0714Z" fill="black"/>
<path d="M39.1914 35.6143V33.9429H45.9574V35.6143H43.6595V42.9429H45.9574V44.6143H39.1914V42.9429H41.6169V35.6143H39.1914Z" fill="black"/>
<path d="M45.9574 44.743H39.1914V42.943H41.4893V35.6145H39.1914V33.8145H45.9574V35.6145H43.6595V42.943H45.9574V44.743ZM39.3191 44.6145H45.9574V43.0716H43.6595V35.6145H45.9574V34.0716H39.3191V35.6145H41.6169V43.0716H39.3191V44.6145Z" fill="black"/>
<path d="M53.3617 44.7427L49.9149 37.0284V44.7427H48.1277V34.0713H50.5532L54 41.7856C54 41.2713 54 34.0713 54 34.0713H55.7873V44.7427H53.3617Z" fill="black"/>
<path d="M55.9149 44.7429H53.3617L50.0426 37.1572V44.7429H48.1277V33.9429H50.6809L54 41.4C54 40.1143 54 33.9429 54 33.9429H55.9149V44.7429ZM53.4894 44.6143H55.9149V34.0714H54.1277C54.1277 34.7143 54.1277 41.1429 54.1277 41.6572H54L50.5532 33.9429H48.1277V44.4857H49.9149V36.7714H50.0426L53.4894 44.6143Z" fill="black"/>
<path d="M63.5745 34.3282C59.2341 32.3996 56.1702 35.7425 57.1915 41.5282C57.9575 45.2568 61.7873 45.771 64.0851 43.8425C66.1277 42.0425 66.2553 35.871 63.5745 34.3282ZM63.1915 41.7853C62.9362 42.4282 62.2979 43.071 61.5319 43.071C59.1064 43.1996 59.2341 40.2425 59.2341 38.4425C59.3617 37.5425 59.617 35.6139 61.5319 35.6139C63.9575 35.4853 63.5745 40.6282 63.1915 41.7853Z" fill="black"/>
<path d="M61.149 45.0001C60.6383 45.0001 60.2553 44.8715 59.8724 44.743C58.4681 44.2287 57.5745 43.0715 57.3192 41.5287C56.8085 38.443 57.3192 35.8715 58.9788 34.5858C60.2553 33.5573 61.9149 33.5573 63.7022 34.3287C64.7234 34.9716 65.4894 36.3858 65.6171 38.1858C65.8724 40.5001 65.2341 42.943 64.2128 43.843L64.0851 43.9715C63.1915 44.6144 62.1702 45.0001 61.149 45.0001ZM61.2766 33.8144C60.383 33.8144 59.6171 34.0715 58.9788 34.5858C57.4468 35.8715 56.8085 38.443 57.3192 41.4001C57.7022 42.943 58.5958 44.1001 59.8724 44.6144C61.2766 45.1287 62.9362 44.743 64.0851 43.7144L64.2128 43.5858C65.2341 42.5573 65.7447 40.243 65.6171 38.0573C65.3617 36.2573 64.7234 34.843 63.7022 34.3287C62.8085 34.0716 61.9149 33.8144 61.2766 33.8144ZM61.2766 43.0715C60.766 43.0715 60.2553 42.943 60 42.5573C59.1064 41.6573 59.1064 39.9858 59.1064 38.7001V38.443C59.2341 36.5144 60 35.4858 61.4043 35.6144C62.0426 35.6144 62.5532 35.8715 62.8085 36.3858C63.8298 37.8001 63.4468 41.0144 63.0639 41.9144C62.8085 42.6858 62.0426 43.2001 61.4043 43.2001C61.4043 43.0715 61.4043 43.0715 61.2766 43.0715ZM61.4043 35.6144C60.1277 35.6144 59.3617 36.5144 59.2341 38.443V38.7001C59.2341 39.9858 59.2341 41.6573 60 42.5573C60.383 42.943 60.766 43.0715 61.4043 43.0715C62.1702 43.0715 62.8085 42.5573 63.0639 41.7858C63.4468 40.8858 63.7022 37.8001 62.8085 36.3858C62.4256 35.8715 62.0426 35.6144 61.4043 35.6144Z" fill="black"/>
</g>
<defs>
<clipPath id="clip0_504_125">
<rect width="66" height="45" fill="white"/>
</clipPath>
</defs>
</svg>
