<?xml version="1.0" encoding="utf-8"?>
<!-- Generator: Adobe Illustrator 24.2.1, SVG Export Plug-In . SVG Version: 6.00 Build 0)  -->
<svg version="1.1" id="Layer_1" xmlns="http://www.w3.org/2000/svg" xmlns:xlink="http://www.w3.org/1999/xlink" x="0px" y="0px"
	 width="105.8px" height="24px" viewBox="0 0 105.8 24" style="enable-background:new 0 0 105.8 24;" xml:space="preserve">
<g transform="translate(0.000000,125.000000) scale(0.100000,-0.100000)">
	<path d="M0,1131.9v-118.1h23h23v48v48.2l17.7-0.6l17.7-0.6l27.1-47.4l26.9-47.4l26.5-0.2c14.4,0,26.3,0.4,26.3,1
		c0,0.6-12.3,22.5-27.1,48.6c-15,26.1-27.5,48-27.8,48.6c-0.4,0.8,4.2,3.6,10.4,6.7c14,6.9,28.2,20.2,34.4,32.1
		c8.4,16.9,8.8,46.7,0.8,62.4c-8.4,16.3-28,30.1-49.7,34.8c-6.1,1.3-33.2,2.1-69.5,2.1H0V1131.9z M122.3,1205.8
		c10.6-4.8,15.9-13.4,15.9-25.9c0-11.5-4.8-20.4-13.8-25.3c-5.4-2.9-12.1-3.6-42.2-4l-36.1-0.8v30v30h34.2
		C109.6,1209.7,115.4,1209.1,122.3,1205.8z"/>
	<path d="M733.5,1130v-116.2h22.1h22.1V1130v116.2h-22.1h-22.1C733.5,1246.2,733.5,1130,733.5,1130z"/>
	<path d="M977.7,1137.3c0.6-89.5,0.6-89.9,5-98.9c5-10.2,16.9-21.7,26.5-25.7c4.2-1.7,13.8-2.7,27.7-2.7h21.1v19.2v19.2h-12.3
		c-9.4,0-13.2,1-17.3,4l-5,3.8v45.1v44.9h17.3h17.3v18.2v18.2h-17.3h-17.3v22.1v22.1h-23.2h-23L977.7,1137.3z"/>
	<path d="M247.3,1183c-15.6-5.2-26.1-11.7-37.4-23.6c-11.5-12.5-16.9-22.1-20.7-38.4c-10.4-43.8,8.6-85.8,47-104.1
		c11.9-5.8,13.4-6,37.4-6c21.5,0,26.5,0.6,36.1,4.6c13.4,5.4,31.3,21.1,38.4,34.2l5,9.4l-15.4,9c-8.4,5-16.1,9-16.9,9
		c-0.8,0-4-3.8-7.5-8.4c-7.7-11.1-18-17.9-30.7-20.4c-11.3-2.1-19.4-1-29.2,4c-11.5,5.8-23,20.9-23,30.5c0,3.8,0.8,3.8,63.4,3.8
		h63.4v16.1c0,36.9-17.1,64.1-49,78.2C294.6,1187.2,262.9,1188.2,247.3,1183z M299.2,1145.5c5-3.5,9.8-9,12.9-15.4l5-9.8l-42.6-0.6
		c-23.4-0.2-43,0-43.6,0.6c-2.7,2.7,11.1,19.8,20.7,25.5c9.8,6,11.5,6.3,25.2,5.8C289,1151.1,292.4,1150.3,299.2,1145.5z"/>
	<path d="M595.4,1183.8c-24.8-6.9-47.6-25.2-57-45.7c-6.7-15-9.6-38-6.7-55.5c7.5-45.5,41.1-72.6,90.2-72.6c28.8,0,48,6.9,66.6,23.6
		c10.8,9.8,18,22.1,22.8,38.6c4,14,3.1,45.5-1.7,58.8c-7.9,21.7-28.8,41.9-52.4,50.3C642.7,1186.6,610.4,1187.8,595.4,1183.8z
		 M642.3,1140.7c26.9-11.9,35.7-47.8,17.7-71.6c-12.9-16.9-39.9-23.2-58.2-13.6c-10,5.4-20.7,17.3-23.8,26.5
		c-3.8,11.5-1.5,32.1,4.4,41.1C596,1143.6,619.6,1150.5,642.3,1140.7z"/>
	<path d="M355.8,1180.1c0.6-1.3,15.9-39.4,34.2-84.5l33.2-82l20.9,0.6l20.9,0.6l32.5,79.7c17.9,43.8,33,81.6,33.6,84.1l1.2,4.4
		l-23.4-0.6l-23.6-0.6l-20.4-54.1c-11.1-29.8-20.9-53.6-21.5-52.8c-0.8,0.8-10.2,25.3-21.1,54.7l-20,53.2h-23.8
		C359.3,1182.8,355,1182.2,355.8,1180.1z"/>
	<path d="M800.7,1130.4c0-29.6,1-57.4,2.1-63.7c4.2-23.4,16.7-39.6,38-49.7c12.3-5.8,13.6-6,38.6-6c24.4,0,26.7,0.4,37.4,5.4
		c21.3,10,34.9,27.5,39.2,50.3c1.2,6.3,2.1,34.2,2.1,63.7v52.4h-21.9h-22.1l-0.6-52.2c-0.6-50.1-0.8-52.8-5-60.5
		c-6.1-11.5-16.5-16.5-32.1-15.6c-13.8,0.8-21.7,5.6-27.1,16.3c-3.3,6.5-3.6,13.1-4.2,59.7l-0.6,52.2h-22.1h-21.9L800.7,1130.4
		L800.7,1130.4z"/>
</g>
</svg>
