<svg width="21" height="17" viewBox="0 0 21 17" fill="none" xmlns="http://www.w3.org/2000/svg">
<g clip-path="url(#clip0)">
<path d="M6.60322 17C14.5286 17 18.8623 10.4588 18.8623 4.78649C18.8623 4.60061 18.8623 4.41613 18.8496 4.23165C19.6934 3.6233 20.4213 2.87131 20.9995 2.00948C20.2136 2.35731 19.3796 2.58403 18.5245 2.68543C19.4234 2.14889 20.0977 1.30537 20.4185 0.311164C19.5733 0.811082 18.6474 1.16314 17.682 1.35325C16.0523 -0.376049 13.3229 -0.459134 11.5871 1.16595C10.4677 2.21508 9.99273 3.7768 10.3404 5.2667C6.87602 5.09489 3.64905 3.46417 1.46099 0.782918C0.317492 2.74457 0.901258 5.25402 2.79531 6.51297C2.10978 6.49326 1.43838 6.30878 0.839065 5.97503C0.839065 5.99193 0.839065 6.01164 0.839065 6.02995C0.840478 8.07328 2.28646 9.83356 4.29642 10.2377C3.66177 10.4095 2.99603 10.4349 2.35148 10.3109C2.91546 12.06 4.53248 13.2584 6.37565 13.2936C4.85051 14.4877 2.96493 15.1369 1.02423 15.1341C0.680755 15.1341 0.338694 15.113 -0.00195312 15.0721C1.96843 16.3325 4.26109 17 6.6018 16.9972" fill="black"/>
</g>
<defs>
<clipPath id="clip0">
<rect width="21" height="17" fill="white"/>
</clipPath>
</defs>
</svg>
