<svg width="20" height="14" viewBox="0 0 20 14" fill="none" xmlns="http://www.w3.org/2000/svg">
<path d="M19.5829 2.18622C19.3526 1.32592 18.6753 0.648644 17.815 0.418319C16.255 0 10 0 10 0C10 0 3.74626 0 2.18625 0.418319C1.32595 0.647399 0.64741 1.32592 0.418327 2.18622C0 3.7462 0 6.99938 0 6.99938C0 6.99938 0 10.2538 0.418327 11.8138C0.648655 12.6741 1.32595 13.3514 2.18625 13.5817C3.74626 14 10 14 10 14C10 14 16.2537 14 17.8137 13.5817C18.6741 13.3514 19.3526 12.6741 19.5817 11.8138C20 10.2538 20 6.99938 20 6.99938C20 6.99938 20 3.7462 19.5829 2.18622Z" fill="black"/>
<path d="M8.00049 9.99981V4.00017L13.196 7.00061L8.00049 9.99981Z" fill="#EEEEEE"/>
</svg>
